<svg width="40" height="40" viewBox="0 0 40 40" fill="none" xmlns="http://www.w3.org/2000/svg">
<path d="M28.3334 30C29.2175 30 30.0653 30.3512 30.6904 30.9763C31.3156 31.6014 31.6667 32.4493 31.6667 33.3333C31.6667 34.2174 31.3156 35.0652 30.6904 35.6903C30.0653 36.3155 29.2175 36.6666 28.3334 36.6666C27.4494 36.6666 26.6015 36.3155 25.9764 35.6903C25.3513 35.0652 25.0001 34.2174 25.0001 33.3333C25.0001 31.4833 26.4834 30 28.3334 30ZM1.66675 3.33331H7.11675L8.68341 6.66665H33.3334C33.7754 6.66665 34.1994 6.84224 34.5119 7.1548C34.8245 7.46736 35.0001 7.89129 35.0001 8.33331C35.0001 8.61665 34.9167 8.89998 34.8001 9.16665L28.8334 19.95C28.2667 20.9666 27.1667 21.6666 25.9167 21.6666H13.5001L12.0001 24.3833L11.9501 24.5833C11.9501 24.6938 11.994 24.7998 12.0721 24.8779C12.1503 24.9561 12.2562 25 12.3667 25H31.6667V28.3333H11.6667C10.7827 28.3333 9.93485 27.9821 9.30973 27.357C8.6846 26.7319 8.33341 25.884 8.33341 25C8.33341 24.4166 8.48341 23.8666 8.73341 23.4L11.0001 19.3166L5.00008 6.66665H1.66675V3.33331ZM11.6667 30C12.5508 30 13.3986 30.3512 14.0238 30.9763C14.6489 31.6014 15.0001 32.4493 15.0001 33.3333C15.0001 34.2174 14.6489 35.0652 14.0238 35.6903C13.3986 36.3155 12.5508 36.6666 11.6667 36.6666C10.7827 36.6666 9.93485 36.3155 9.30973 35.6903C8.6846 35.0652 8.33341 34.2174 8.33341 33.3333C8.33341 31.4833 9.81675 30 11.6667 30ZM26.6667 18.3333L31.3001 9.99998H10.2334L14.1667 18.3333H26.6667Z" fill="#7B8E76"/>
</svg>
