<svg width="40" height="40" viewBox="0 0 40 40" fill="none" xmlns="http://www.w3.org/2000/svg">
<path fill-rule="evenodd" clip-rule="evenodd" d="M16.5733 5.41669H23.4267C26.49 5.41669 28.9167 5.41669 30.815 5.67169C32.7683 5.93502 34.35 6.48835 35.5983 7.73502C36.845 8.98335 37.3983 10.565 37.6617 12.5184C37.8117 13.64 37.8733 14.945 37.8983 16.4567C37.9201 16.5834 37.9224 16.7127 37.905 16.84C37.9167 17.7834 37.9167 18.8034 37.9167 19.9067V20.0934C37.9167 23.1567 37.9167 25.5834 37.6617 27.4817C37.3983 29.435 36.845 31.0167 35.5983 32.265C34.35 33.5117 32.7683 34.065 30.815 34.3284C28.915 34.5834 26.49 34.5834 23.4267 34.5834H16.5733C13.51 34.5834 11.0833 34.5834 9.18502 34.3284C7.23168 34.065 5.65002 33.5117 4.40168 32.265C3.15502 31.0167 2.60168 29.435 2.33835 27.4817C2.08335 25.5817 2.08335 23.1567 2.08335 20.0934V19.9067C2.08335 18.8034 2.08335 17.7834 2.09502 16.84C2.07715 16.7127 2.07883 16.5835 2.10002 16.4567C2.12668 14.945 2.18835 13.64 2.33835 12.5184C2.60168 10.565 3.15502 8.98335 4.40168 7.73502C5.65002 6.48835 7.23168 5.93502 9.18502 5.67169C11.085 5.41669 13.51 5.41669 16.5733 5.41669ZM4.58668 17.9167C4.58335 18.5634 4.58335 19.2567 4.58335 20C4.58335 23.1784 4.58668 25.4367 4.81668 27.15C5.04168 28.825 5.46502 29.7917 6.17002 30.4967C6.87502 31.2017 7.84168 31.625 9.51835 31.85C11.2317 32.08 13.4883 32.0834 16.6667 32.0834H23.3333C26.5117 32.0834 28.77 32.08 30.4833 31.85C32.1583 31.625 33.125 31.2017 33.83 30.4967C34.535 29.7917 34.9583 28.825 35.1833 27.1484C35.4133 25.435 35.4167 23.1784 35.4167 20C35.4167 19.2567 35.4167 18.5634 35.4133 17.9167H4.58668ZM35.3733 15.4167H4.62668C4.66002 14.4384 4.71668 13.5934 4.81668 12.85C5.04168 11.175 5.46502 10.2084 6.17002 9.50335C6.87502 8.79835 7.84168 8.37502 9.51835 8.15002C11.2317 7.92002 13.4883 7.91669 16.6667 7.91669H23.3333C26.5117 7.91669 28.77 7.92002 30.4833 8.15002C32.1583 8.37502 33.125 8.79835 33.83 9.50335C34.535 10.2084 34.9583 11.175 35.1833 12.8517C35.2833 13.5934 35.34 14.4384 35.3733 15.4167ZM8.75002 26.6667C8.75002 26.3352 8.88171 26.0172 9.11613 25.7828C9.35055 25.5484 9.66849 25.4167 10 25.4167H16.6667C16.9982 25.4167 17.3161 25.5484 17.5506 25.7828C17.785 26.0172 17.9167 26.3352 17.9167 26.6667C17.9167 26.9982 17.785 27.3162 17.5506 27.5506C17.3161 27.785 16.9982 27.9167 16.6667 27.9167H10C9.66849 27.9167 9.35055 27.785 9.11613 27.5506C8.88171 27.3162 8.75002 26.9982 8.75002 26.6667ZM19.5833 26.6667C19.5833 26.3352 19.715 26.0172 19.9495 25.7828C20.1839 25.5484 20.5018 25.4167 20.8333 25.4167H23.3333C23.6649 25.4167 23.9828 25.5484 24.2172 25.7828C24.4517 26.0172 24.5833 26.3352 24.5833 26.6667C24.5833 26.9982 24.4517 27.3162 24.2172 27.5506C23.9828 27.785 23.6649 27.9167 23.3333 27.9167H20.8333C20.5018 27.9167 20.1839 27.785 19.9495 27.5506C19.715 27.3162 19.5833 26.9982 19.5833 26.6667Z" fill="#7B8E76"/>
</svg>
