<svg width="40" height="40" viewBox="0 0 40 40" fill="none" xmlns="http://www.w3.org/2000/svg">
<g clip-path="url(#clip0_135_447)">
<path fill-rule="evenodd" clip-rule="evenodd" d="M35.9099 8.51832C36.3786 8.98714 36.6418 9.62291 36.6418 10.2858C36.6418 10.9487 36.3786 11.5845 35.9099 12.0533L17.1715 30.7917C16.9239 31.0393 16.6299 31.2358 16.3063 31.3699C15.9828 31.5039 15.636 31.5729 15.2857 31.5729C14.9355 31.5729 14.5887 31.5039 14.2651 31.3699C13.9415 31.2358 13.6475 31.0393 13.3999 30.7917L4.08988 21.4833C3.85111 21.2527 3.66065 20.9768 3.52963 20.6718C3.3986 20.3668 3.32964 20.0388 3.32675 19.7068C3.32387 19.3749 3.38712 19.0457 3.51283 18.7384C3.63853 18.4312 3.82416 18.1521 4.05889 17.9173C4.29363 17.6826 4.57275 17.497 4.88 17.3713C5.18724 17.2456 5.51644 17.1823 5.84838 17.1852C6.18033 17.1881 6.50838 17.257 6.81339 17.3881C7.1184 17.5191 7.39426 17.7095 7.62488 17.9483L15.2849 25.6083L32.3732 8.51832C32.6054 8.28601 32.8811 8.10171 33.1845 7.97598C33.4879 7.85024 33.8131 7.78552 34.1415 7.78552C34.47 7.78552 34.7952 7.85024 35.0986 7.97598C35.402 8.10171 35.6777 8.28601 35.9099 8.51832Z" fill="#899D7F"/>
</g>
<defs>
<clipPath id="clip0_135_447">
<rect width="40" height="40" fill="white"/>
</clipPath>
</defs>
</svg>
