<svg width="369" height="99" viewBox="0 0 369 99" fill="none" xmlns="http://www.w3.org/2000/svg">
<path d="M13.0625 76.3125C6.5625 74.5208 2.58333 68.5833 1.125 58.5C0.875 56.5833 0.75 54.3333 0.75 51.75C0.75 50.2083 0.791667 48.5417 0.875 46.75C1.125 41.9583 1.66667 37.1875 2.5 32.4375C3.41667 27.1458 4.64583 21.5625 6.1875 15.6875C7.77083 9.8125 9.08333 5.79167 10.125 3.625C11.25 1.54167 12.6042 0.5 14.1875 0.5C14.6042 0.5 15.0625 0.583333 15.5625 0.75C16.8958 1.25 17.5833 1.95833 17.625 2.875C17.7083 3.75 17.75 4.25 17.75 4.375C17.75 6 17.2708 8.4375 16.3125 11.6875C11.6875 27.2292 9.375 40.2292 9.375 50.6875C9.375 57.7292 10.1042 62.3125 11.5625 64.4375C13.0625 66.5625 14.7917 67.625 16.75 67.625C17.9167 67.625 19.2083 67.3333 20.625 66.75C22.1667 66.0833 23.1458 65.75 23.5625 65.75C24.0208 65.7083 24.3125 65.6875 24.4375 65.6875C25.0625 65.6875 25.6875 65.8542 26.3125 66.1875C27.6042 66.8958 28.25 67.8958 28.25 69.1875C28.25 69.4792 28.2292 69.7708 28.1875 70.0625C27.6042 72.1458 25.9167 73.75 23.125 74.875C20.375 76 17.9375 76.5625 15.8125 76.5625C14.8958 76.5625 13.9792 76.4792 13.0625 76.3125Z" fill="white"/>
<path d="M109.905 82.25C108.863 82 107.509 81.5417 105.842 80.875C104.176 80.2083 102.759 79.5833 101.592 79C99.8425 78 98.5717 77.0417 97.78 76.125C97.03 75.1667 96.655 74.1042 96.655 72.9375C96.655 71.4792 97.2383 70.4792 98.405 69.9375C98.8633 69.6458 99.4258 69.5 100.092 69.5C101.426 69.5 103.217 70.0833 105.467 71.25C107.217 72.125 108.551 72.75 109.467 73.125C110.426 73.5 111.447 73.7708 112.53 73.9375C113.03 73.9792 113.53 74 114.03 74C118.905 74 123.009 71.0833 126.342 65.25C130.009 58.75 132.155 49.7083 132.78 38.125C132.822 37.0833 132.842 36.0833 132.842 35.125C132.842 33.5417 132.78 32.0417 132.655 30.625C132.447 28.3333 132.134 26.7292 131.717 25.8125C131.426 25.2708 131.176 24.9167 130.967 24.75C130.801 24.5833 130.551 24.5 130.217 24.5C129.634 24.5 128.967 24.9167 128.217 25.75C127.509 26.5833 126.467 28.1042 125.092 30.3125C121.592 36.1042 118.822 40.2708 116.78 42.8125C114.738 45.3125 112.78 47 110.905 47.875C109.488 48.5833 108.113 48.9375 106.78 48.9375C105.738 48.9375 104.717 48.7083 103.717 48.25C100.801 46.75 98.8842 43.8333 97.9675 39.5C97.5508 37.625 97.3425 34.9375 97.3425 31.4375V30.4375C97.3425 26.4792 97.5717 23 98.03 20C98.78 15.5833 99.6342 12.4583 100.592 10.625C101.551 8.79167 102.822 7.875 104.405 7.875C104.78 7.875 105.113 7.95833 105.405 8.125C105.738 8.25 106.072 8.47917 106.405 8.8125C107.113 9.39583 107.467 9.95833 107.467 10.5C107.509 11.0417 107.53 11.3542 107.53 11.4375C107.53 12.5208 107.322 14.1458 106.905 16.3125C106.322 19.3958 105.947 22.125 105.78 24.5C105.655 26.875 105.592 28.6458 105.592 29.8125C105.592 31.5625 105.676 33.0833 105.842 34.375C106.301 36.7083 107.113 37.875 108.28 37.875C108.863 37.875 109.53 37.6042 110.28 37.0625C111.405 35.9792 114.072 31.9792 118.28 25.0625C121.28 20.1042 123.717 16.6667 125.592 14.75C127.509 12.8333 129.488 11.875 131.53 11.875C136.78 11.875 139.905 16.9167 140.905 27C141.197 29.75 141.342 32.5208 141.342 35.3125C141.342 42.5208 140.405 49.8125 138.53 57.1875C135.572 68.7708 130.467 76.5208 123.217 80.4375C120.342 81.8958 117.301 82.625 114.092 82.625C112.717 82.625 111.322 82.5 109.905 82.25Z" fill="white"/>
<path d="M217.997 98.3125C217.414 97.9375 216.852 97.3125 216.31 96.4375C215.768 95.5625 215.372 94.6042 215.122 93.5625C214.664 92.0208 214.393 89.9583 214.31 87.375C214.227 84.7917 214.185 82.0208 214.185 79.0625C214.185 76.1042 214.206 72.5417 214.247 68.375C214.331 60.875 214.393 55.4583 214.435 52.125C214.477 51.1667 214.497 50.625 214.497 50.5C214.539 50.2083 214.581 49.5625 214.622 48.5625C214.706 47.5208 214.768 46.375 214.81 45.125C215.018 40.5 215.331 36.0417 215.747 31.75C216.206 27.4167 216.727 24.0208 217.31 21.5625C217.643 20.0625 218.018 18.8958 218.435 18.0625C218.852 17.2292 219.414 16.5208 220.122 15.9375C220.497 15.5625 220.852 15.3333 221.185 15.25C221.518 15.125 221.977 15.0625 222.56 15.0625C224.893 15.1042 226.06 16.7292 226.06 19.9375C226.06 21.5208 226.414 22.3125 227.122 22.3125C227.831 22.3125 229.247 21.5 231.372 19.875C236.497 15.9583 240.914 14 244.622 14C245.289 14 245.935 14.0625 246.56 14.1875C248.893 14.4792 250.789 15.3542 252.247 16.8125C253.706 18.1042 254.727 19.5417 255.31 21.125C255.935 22.6667 256.289 24.7083 256.372 27.25C256.414 27.9167 256.435 28.5417 256.435 29.125C256.435 29.7083 256.414 30.2292 256.372 30.6875C256.331 31.6458 256.227 32.6042 256.06 33.5625C254.185 42.8958 249.831 51.1458 242.997 58.3125C238.039 63.7708 232.685 66.875 226.935 67.625C225.518 67.875 224.497 68.2917 223.872 68.875C223.247 69.4167 222.872 70.3125 222.747 71.5625C222.664 72.3542 222.622 73.5833 222.622 75.25V77.0625C222.664 79.6875 222.747 82.375 222.872 85.125C222.997 87.875 223.143 89.9375 223.31 91.3125C223.56 92.7292 223.685 93.875 223.685 94.75C223.685 95.0833 223.664 95.375 223.622 95.625C223.497 96.5417 223.122 97.2917 222.497 97.875C222.081 98.2917 221.727 98.5625 221.435 98.6875C221.143 98.8125 220.727 98.875 220.185 98.875C219.81 98.875 219.414 98.8125 218.997 98.6875C218.622 98.6042 218.289 98.4792 217.997 98.3125ZM229.247 58.125C231.747 57.2083 234.352 55.2708 237.06 52.3125C239.768 49.3542 242.102 45.9167 244.06 42C246.685 36.75 247.997 32.3333 247.997 28.75C247.997 26.6667 247.56 25.1875 246.685 24.3125C245.852 23.4375 244.935 23 243.935 23C243.477 23 243.018 23.0625 242.56 23.1875C240.852 23.6875 238.872 24.9167 236.622 26.875C234.372 28.7917 232.331 31.0417 230.497 33.625C229.456 35.1667 228.352 37.0625 227.185 39.3125C226.018 41.5625 225.185 43.5 224.685 45.125C223.685 48.1667 223.185 50.75 223.185 52.875C223.185 54.0417 223.352 55.0625 223.685 55.9375C224.31 57.6458 225.456 58.5 227.122 58.5C227.747 58.5 228.456 58.375 229.247 58.125Z" fill="white"/>
<path d="M342.715 71.5C337.965 70.125 334.527 67.4167 332.402 63.375C330.277 59.3333 329.215 54.875 329.215 50C329.215 48.7917 329.277 47.5417 329.402 46.25C330.069 40.4167 331.632 35.0625 334.09 30.1875C336.548 25.2708 339.548 21.3125 343.09 18.3125C346.673 15.3125 350.382 13.8125 354.215 13.8125C357.965 13.8125 361.069 15 363.527 17.375C365.027 18.7917 366.111 20.3125 366.777 21.9375C367.444 23.5625 367.777 25.5833 367.777 28V29.1875C367.777 29.8958 367.757 30.5 367.715 31C367.59 31.75 367.382 32.5417 367.09 33.375C366.132 36.7083 364.527 39.4792 362.277 41.6875C360.569 43.5208 358.84 44.8125 357.09 45.5625C355.34 46.2708 353.215 46.625 350.715 46.625C349.382 46.625 348.361 46.5833 347.652 46.5C346.986 46.375 346.111 46.1042 345.027 45.6875C343.652 45.1875 342.652 44.8333 342.027 44.625C341.444 44.4167 340.986 44.3125 340.652 44.3125H340.527C340.236 44.3125 339.965 44.3958 339.715 44.5625C339.048 44.8542 338.569 45.3958 338.277 46.1875C338.027 46.9792 337.902 48.25 337.902 50C337.902 54.5833 338.777 57.9375 340.527 60.0625C342.319 62.1875 344.548 63.25 347.215 63.25C347.715 63.25 348.257 63.2083 348.84 63.125C351.257 62.7083 354.527 61.0625 358.652 58.1875C360.486 56.8542 361.798 56 362.59 55.625C363.423 55.2083 364.215 55 364.965 55C366.465 55 367.444 55.4375 367.902 56.3125C368.361 57.1875 368.59 57.9375 368.59 58.5625C368.59 59.2708 368.402 60.0208 368.027 60.8125C367.319 62.2708 365.048 64.25 361.215 66.75C356.298 70.1667 351.694 71.875 347.402 71.875H346.777C346.069 71.875 345.319 71.8542 344.527 71.8125C343.777 71.7292 343.173 71.625 342.715 71.5ZM353.965 37.3125C356.882 35.5625 358.59 32.9167 359.09 29.375C359.132 29 359.152 28.625 359.152 28.25C359.152 25.625 358.048 23.8542 355.84 22.9375C355.257 22.7292 354.673 22.625 354.09 22.625C351.798 22.625 349.298 24.0625 346.59 26.9375C344.298 29.2708 343.152 31.25 343.152 32.875C343.152 34.2917 343.736 35.4792 344.902 36.4375C346.111 37.3958 347.194 37.9375 348.152 38.0625C349.152 38.1875 349.84 38.25 350.215 38.25C351.507 38.25 352.757 37.9375 353.965 37.3125Z" fill="white"/>
</svg>
