<svg width="34" height="34" viewBox="0 0 34 34" fill="none" xmlns="http://www.w3.org/2000/svg">
<path d="M27.3334 27C28.2175 27 29.0653 27.3512 29.6904 27.9763C30.3156 28.6014 30.6667 29.4493 30.6667 30.3333C30.6667 31.2174 30.3156 32.0652 29.6904 32.6903C29.0653 33.3155 28.2175 33.6666 27.3334 33.6666C26.4494 33.6666 25.6015 33.3155 24.9764 32.6903C24.3513 32.0652 24.0001 31.2174 24.0001 30.3333C24.0001 28.4833 25.4834 27 27.3334 27ZM0.666748 0.333313H6.11675L7.68341 3.66665H32.3334C32.7754 3.66665 33.1994 3.84224 33.5119 4.1548C33.8245 4.46736 34.0001 4.89129 34.0001 5.33331C34.0001 5.61665 33.9167 5.89998 33.8001 6.16665L27.8334 16.95C27.2667 17.9666 26.1667 18.6666 24.9167 18.6666H12.5001L11.0001 21.3833L10.9501 21.5833C10.9501 21.6938 10.994 21.7998 11.0721 21.8779C11.1503 21.9561 11.2562 22 11.3667 22H30.6667V25.3333H10.6667C9.78269 25.3333 8.93485 24.9821 8.30973 24.357C7.6846 23.7319 7.33341 22.884 7.33341 22C7.33341 21.4166 7.48341 20.8666 7.73341 20.4L10.0001 16.3166L4.00008 3.66665H0.666748V0.333313ZM10.6667 27C11.5508 27 12.3986 27.3512 13.0238 27.9763C13.6489 28.6014 14.0001 29.4493 14.0001 30.3333C14.0001 31.2174 13.6489 32.0652 13.0238 32.6903C12.3986 33.3155 11.5508 33.6666 10.6667 33.6666C9.78269 33.6666 8.93485 33.3155 8.30973 32.6903C7.6846 32.0652 7.33341 31.2174 7.33341 30.3333C7.33341 28.4833 8.81675 27 10.6667 27ZM25.6667 15.3333L30.3001 6.99998H9.23341L13.1667 15.3333H25.6667Z" fill="#7B8E76"/>
</svg>
