<svg width="40" height="40" viewBox="0 0 40 40" fill="none" xmlns="http://www.w3.org/2000/svg">
<path d="M37.5407 29.0781L23.8767 5.34843C23.4809 4.67157 22.9148 4.11013 22.2347 3.71997C21.5546 3.32981 20.7842 3.12451 20.0001 3.12451C19.216 3.12451 18.4456 3.32981 17.7655 3.71997C17.0854 4.11013 16.5193 4.67157 16.1235 5.34843L2.45947 29.0781C2.07544 29.7349 1.87305 30.4821 1.87305 31.243C1.87305 32.0038 2.07544 32.751 2.45947 33.4078C2.85086 34.088 3.41618 34.6519 4.09741 35.0415C4.77865 35.4311 5.55128 35.6325 6.33604 35.625H33.6642C34.4484 35.632 35.2204 35.4303 35.901 35.0407C36.5816 34.6511 37.1465 34.0876 37.5376 33.4078C37.9221 32.7513 38.125 32.0042 38.1256 31.2434C38.1261 30.4825 37.9243 29.7352 37.5407 29.0781ZM34.2907 31.5312C34.2272 31.6395 34.1356 31.7286 34.0255 31.7891C33.9155 31.8496 33.7912 31.8793 33.6657 31.875H6.33604C6.21055 31.8793 6.08624 31.8496 5.97622 31.7891C5.86621 31.7286 5.77458 31.6395 5.71104 31.5312C5.65713 31.4436 5.6286 31.3427 5.6286 31.2398C5.6286 31.1369 5.65713 31.0361 5.71104 30.9484L19.3751 7.21874C19.4428 7.11459 19.5354 7.029 19.6445 6.96975C19.7537 6.9105 19.8759 6.87946 20.0001 6.87946C20.1243 6.87946 20.2465 6.9105 20.3557 6.96975C20.4648 7.029 20.5574 7.11459 20.6251 7.21874L34.2876 30.9484C34.342 31.0358 34.3711 31.1365 34.3716 31.2394C34.3722 31.3423 34.3442 31.4433 34.2907 31.5312ZM18.1251 21.25V16.25C18.1251 15.7527 18.3226 15.2758 18.6743 14.9242C19.0259 14.5725 19.5028 14.375 20.0001 14.375C20.4974 14.375 20.9743 14.5725 21.3259 14.9242C21.6776 15.2758 21.8751 15.7527 21.8751 16.25V21.25C21.8751 21.7473 21.6776 22.2242 21.3259 22.5758C20.9743 22.9274 20.4974 23.125 20.0001 23.125C19.5028 23.125 19.0259 22.9274 18.6743 22.5758C18.3226 22.2242 18.1251 21.7473 18.1251 21.25ZM22.5001 27.5C22.5001 27.9944 22.3535 28.4778 22.0788 28.8889C21.8041 29.3 21.4136 29.6205 20.9568 29.8097C20.5 29.9989 19.9973 30.0484 19.5124 29.952C19.0274 29.8555 18.582 29.6174 18.2323 29.2678C17.8827 28.9181 17.6446 28.4727 17.5481 27.9877C17.4517 27.5028 17.5012 27.0001 17.6904 26.5433C17.8796 26.0865 18.2001 25.696 18.6112 25.4213C19.0223 25.1466 19.5056 25 20.0001 25C20.6631 25 21.299 25.2634 21.7679 25.7322C22.2367 26.2011 22.5001 26.8369 22.5001 27.5Z" fill="#6E5D5D"/>
</svg>
